<mxfile host="app.diagrams.net" agent="Mozilla/5.0 (Windows NT 10.0; Win64; x64) AppleWebKit/537.36 (KHTML, like Gecko) Chrome/131.0.0.0 Safari/537.36" version="25.0.3">
  <diagram name="Trang-1" id="vqwA7IuI_AL6ugNA0UEH">
    <mxGraphModel dx="1434" dy="866" grid="1" gridSize="10" guides="1" tooltips="1" connect="1" arrows="1" fold="1" page="1" pageScale="1" pageWidth="827" pageHeight="1169" math="0" shadow="0">
      <root>
        <mxCell id="0" />
        <mxCell id="1" parent="0" />
        <mxCell id="xOgIHKtFTcHZ12VZrLwK-4" style="edgeStyle=orthogonalEdgeStyle;rounded=0;orthogonalLoop=1;jettySize=auto;html=1;" edge="1" parent="1" source="xOgIHKtFTcHZ12VZrLwK-3">
          <mxGeometry relative="1" as="geometry">
            <mxPoint x="400" y="250" as="targetPoint" />
          </mxGeometry>
        </mxCell>
        <mxCell id="xOgIHKtFTcHZ12VZrLwK-3" value="Start" style="strokeWidth=2;html=1;shape=mxgraph.flowchart.start_1;whiteSpace=wrap;" vertex="1" parent="1">
          <mxGeometry x="350" y="120" width="100" height="60" as="geometry" />
        </mxCell>
        <mxCell id="xOgIHKtFTcHZ12VZrLwK-6" style="edgeStyle=orthogonalEdgeStyle;rounded=0;orthogonalLoop=1;jettySize=auto;html=1;" edge="1" parent="1" source="xOgIHKtFTcHZ12VZrLwK-5">
          <mxGeometry relative="1" as="geometry">
            <mxPoint x="390" y="400" as="targetPoint" />
          </mxGeometry>
        </mxCell>
        <mxCell id="xOgIHKtFTcHZ12VZrLwK-5" value="nhập giá trị A1,B1" style="shape=parallelogram;html=1;strokeWidth=2;perimeter=parallelogramPerimeter;whiteSpace=wrap;rounded=1;arcSize=12;size=0.23;" vertex="1" parent="1">
          <mxGeometry x="320" y="250" width="140" height="80" as="geometry" />
        </mxCell>
        <mxCell id="xOgIHKtFTcHZ12VZrLwK-8" style="edgeStyle=orthogonalEdgeStyle;rounded=0;orthogonalLoop=1;jettySize=auto;html=1;" edge="1" parent="1" source="xOgIHKtFTcHZ12VZrLwK-7">
          <mxGeometry relative="1" as="geometry">
            <mxPoint x="240" y="450" as="targetPoint" />
          </mxGeometry>
        </mxCell>
        <mxCell id="xOgIHKtFTcHZ12VZrLwK-10" style="edgeStyle=orthogonalEdgeStyle;rounded=0;orthogonalLoop=1;jettySize=auto;html=1;" edge="1" parent="1" source="xOgIHKtFTcHZ12VZrLwK-7">
          <mxGeometry relative="1" as="geometry">
            <mxPoint x="530" y="450" as="targetPoint" />
          </mxGeometry>
        </mxCell>
        <mxCell id="xOgIHKtFTcHZ12VZrLwK-7" value="If A1 &amp;lt; B1" style="strokeWidth=2;html=1;shape=mxgraph.flowchart.decision;whiteSpace=wrap;" vertex="1" parent="1">
          <mxGeometry x="340" y="400" width="100" height="100" as="geometry" />
        </mxCell>
        <mxCell id="xOgIHKtFTcHZ12VZrLwK-9" value="true" style="text;html=1;align=center;verticalAlign=middle;resizable=0;points=[];autosize=1;strokeColor=none;fillColor=none;" vertex="1" parent="1">
          <mxGeometry x="260" y="418" width="40" height="30" as="geometry" />
        </mxCell>
        <mxCell id="xOgIHKtFTcHZ12VZrLwK-12" value="false" style="text;html=1;align=center;verticalAlign=middle;resizable=0;points=[];autosize=1;strokeColor=none;fillColor=none;" vertex="1" parent="1">
          <mxGeometry x="445" y="408" width="50" height="30" as="geometry" />
        </mxCell>
        <mxCell id="xOgIHKtFTcHZ12VZrLwK-16" style="edgeStyle=orthogonalEdgeStyle;rounded=0;orthogonalLoop=1;jettySize=auto;html=1;" edge="1" parent="1" source="xOgIHKtFTcHZ12VZrLwK-13">
          <mxGeometry relative="1" as="geometry">
            <mxPoint x="175" y="600" as="targetPoint" />
          </mxGeometry>
        </mxCell>
        <mxCell id="xOgIHKtFTcHZ12VZrLwK-13" value="t=A1" style="rounded=1;whiteSpace=wrap;html=1;absoluteArcSize=1;arcSize=14;strokeWidth=2;" vertex="1" parent="1">
          <mxGeometry x="110" y="400" width="130" height="100" as="geometry" />
        </mxCell>
        <mxCell id="xOgIHKtFTcHZ12VZrLwK-17" style="edgeStyle=orthogonalEdgeStyle;rounded=0;orthogonalLoop=1;jettySize=auto;html=1;" edge="1" parent="1" source="xOgIHKtFTcHZ12VZrLwK-15">
          <mxGeometry relative="1" as="geometry">
            <mxPoint x="595" y="600" as="targetPoint" />
          </mxGeometry>
        </mxCell>
        <mxCell id="xOgIHKtFTcHZ12VZrLwK-15" value="t=B1" style="rounded=1;whiteSpace=wrap;html=1;absoluteArcSize=1;arcSize=14;strokeWidth=2;" vertex="1" parent="1">
          <mxGeometry x="530" y="400" width="130" height="100" as="geometry" />
        </mxCell>
        <mxCell id="xOgIHKtFTcHZ12VZrLwK-18" value="print t" style="shape=parallelogram;html=1;strokeWidth=2;perimeter=parallelogramPerimeter;whiteSpace=wrap;rounded=1;arcSize=12;size=0.23;" vertex="1" parent="1">
          <mxGeometry x="120" y="600" width="100" height="60" as="geometry" />
        </mxCell>
        <mxCell id="xOgIHKtFTcHZ12VZrLwK-21" style="edgeStyle=orthogonalEdgeStyle;rounded=0;orthogonalLoop=1;jettySize=auto;html=1;entryX=1;entryY=0.5;entryDx=0;entryDy=0;entryPerimeter=0;" edge="1" parent="1" source="xOgIHKtFTcHZ12VZrLwK-19" target="xOgIHKtFTcHZ12VZrLwK-22">
          <mxGeometry relative="1" as="geometry">
            <mxPoint x="460" y="630" as="targetPoint" />
          </mxGeometry>
        </mxCell>
        <mxCell id="xOgIHKtFTcHZ12VZrLwK-19" value="print t" style="shape=parallelogram;html=1;strokeWidth=2;perimeter=parallelogramPerimeter;whiteSpace=wrap;rounded=1;arcSize=12;size=0.23;" vertex="1" parent="1">
          <mxGeometry x="540" y="600" width="100" height="60" as="geometry" />
        </mxCell>
        <mxCell id="xOgIHKtFTcHZ12VZrLwK-22" value="end" style="strokeWidth=2;html=1;shape=mxgraph.flowchart.start_1;whiteSpace=wrap;" vertex="1" parent="1">
          <mxGeometry x="350" y="600" width="100" height="60" as="geometry" />
        </mxCell>
        <mxCell id="xOgIHKtFTcHZ12VZrLwK-24" style="edgeStyle=orthogonalEdgeStyle;rounded=0;orthogonalLoop=1;jettySize=auto;html=1;entryX=0;entryY=0.5;entryDx=0;entryDy=0;entryPerimeter=0;" edge="1" parent="1" source="xOgIHKtFTcHZ12VZrLwK-18" target="xOgIHKtFTcHZ12VZrLwK-22">
          <mxGeometry relative="1" as="geometry" />
        </mxCell>
      </root>
    </mxGraphModel>
  </diagram>
</mxfile>
